<?xml version="1.0" standalone="no"?>
<!DOCTYPE svg PUBLIC "-//W3C//DTD SVG 20010904//EN"
 "http://www.w3.org/TR/2001/REC-SVG-20010904/DTD/svg10.dtd">
<svg version="1.0" xmlns="http://www.w3.org/2000/svg"
 width="1024.000000pt" height="1024.000000pt" viewBox="0 0 1024.000000 1024.000000"
 preserveAspectRatio="xMidYMid meet">

<g transform="translate(0.000000,1024.000000) scale(0.100000,-0.100000)"
fill="#000000" stroke="none">
<path d="M4758 9623 c-27 -2 -48 -8 -48 -14 0 -5 -35 -9 -77 -9 -114 0 -183
-10 -183 -26 0 -11 -20 -14 -84 -14 -59 0 -89 -4 -98 -14 -9 -8 -43 -15 -87
-18 -40 -2 -75 -9 -79 -14 -4 -6 -34 -14 -67 -17 -33 -3 -61 -11 -63 -17 -2
-5 -19 -10 -37 -10 -19 0 -40 -6 -47 -14 -8 -7 -38 -15 -67 -18 -34 -3 -59
-12 -66 -22 -7 -9 -26 -16 -48 -16 -20 0 -42 -7 -51 -15 -8 -8 -26 -15 -40
-15 -16 0 -26 -6 -26 -15 0 -11 -12 -15 -45 -15 -26 0 -47 -5 -52 -13 -4 -8
-26 -17 -47 -20 -22 -4 -42 -10 -45 -15 -3 -5 -21 -13 -38 -17 -19 -3 -33 -13
-33 -21 0 -9 -11 -14 -30 -14 -20 0 -30 -5 -30 -15 0 -10 -11 -15 -35 -15 -24
0 -35 -5 -35 -15 0 -10 -10 -15 -30 -15 -20 0 -30 -5 -30 -15 0 -10 -10 -15
-30 -15 -20 0 -30 -5 -30 -15 0 -10 -10 -15 -31 -15 -22 0 -32 -5 -36 -20 -4
-14 -14 -20 -34 -20 -19 0 -29 -5 -29 -15 0 -10 -10 -15 -30 -15 -18 0 -33 -6
-36 -15 -4 -8 -14 -15 -24 -15 -10 0 -25 -7 -34 -15 -8 -8 -19 -15 -25 -15 -6
0 -11 -7 -11 -15 0 -8 -9 -15 -19 -15 -30 0 -51 -11 -51 -26 0 -8 -7 -14 -15
-14 -8 0 -15 -7 -15 -15 0 -10 -10 -15 -30 -15 -20 0 -30 -5 -30 -15 0 -8 -7
-15 -15 -15 -8 0 -15 -7 -15 -15 0 -10 -10 -15 -30 -15 -18 0 -33 -6 -36 -15
-4 -8 -12 -15 -20 -15 -8 0 -14 -9 -14 -20 0 -16 -7 -20 -30 -20 -20 0 -30 -5
-30 -15 0 -8 -9 -15 -20 -15 -11 0 -20 -7 -20 -15 0 -8 -7 -15 -15 -15 -8 0
-15 -7 -15 -15 0 -8 -8 -15 -18 -15 -22 0 -72 -40 -72 -58 0 -7 -9 -12 -20
-12 -11 0 -20 -7 -20 -15 0 -8 -7 -15 -15 -15 -8 0 -15 -7 -15 -15 0 -8 -7
-15 -15 -15 -8 0 -15 -7 -15 -15 0 -9 -9 -15 -22 -15 -13 0 -41 -20 -70 -50
-26 -27 -53 -50 -58 -50 -6 0 -10 -7 -10 -15 0 -8 -7 -15 -15 -15 -8 0 -15 -7
-15 -15 0 -8 -7 -15 -15 -15 -8 0 -15 -6 -15 -14 0 -7 -9 -16 -20 -19 -11 -3
-20 -12 -20 -21 0 -9 -7 -16 -15 -16 -8 0 -15 -7 -15 -15 0 -8 -7 -15 -15 -15
-8 0 -15 -7 -15 -15 0 -8 -7 -15 -15 -15 -8 0 -15 -4 -15 -10 0 -5 -22 -32
-50 -58 -30 -29 -50 -57 -50 -70 0 -13 -6 -22 -15 -22 -8 0 -15 -7 -15 -15 0
-8 -7 -15 -15 -15 -8 0 -15 -7 -15 -15 0 -8 -7 -15 -15 -15 -8 0 -15 -9 -15
-20 0 -11 -5 -20 -12 -20 -18 0 -58 -50 -58 -72 0 -10 -7 -18 -15 -18 -8 0
-15 -7 -15 -15 0 -8 -7 -15 -15 -15 -8 0 -15 -9 -15 -19 0 -10 -7 -21 -15 -25
-8 -3 -15 -17 -15 -31 0 -18 -5 -25 -20 -25 -11 0 -20 -6 -20 -14 0 -8 -7 -16
-15 -20 -9 -3 -15 -18 -15 -36 0 -20 -5 -30 -15 -30 -8 0 -15 -7 -15 -15 0 -8
-7 -15 -15 -15 -10 0 -15 -10 -15 -30 0 -20 -5 -30 -15 -30 -8 0 -15 -7 -15
-15 0 -8 -6 -15 -14 -15 -15 0 -26 -21 -26 -51 0 -10 -7 -19 -15 -19 -8 0 -15
-5 -15 -11 0 -6 -7 -17 -15 -25 -8 -9 -15 -24 -15 -34 0 -10 -7 -20 -15 -24
-9 -3 -15 -18 -15 -36 0 -20 -5 -30 -15 -30 -10 0 -15 -10 -15 -29 0 -20 -6
-30 -20 -34 -15 -4 -20 -14 -20 -36 0 -21 -5 -31 -15 -31 -10 0 -15 -10 -15
-30 0 -20 -5 -30 -15 -30 -10 0 -15 -10 -15 -30 0 -20 -5 -30 -15 -30 -10 0
-15 -11 -15 -35 0 -24 -5 -35 -15 -35 -10 0 -15 -10 -15 -30 0 -19 -5 -30 -14
-30 -8 0 -18 -14 -21 -32 -4 -18 -12 -36 -17 -39 -5 -3 -11 -23 -15 -45 -3
-21 -12 -43 -20 -47 -8 -5 -13 -26 -13 -52 0 -33 -4 -45 -15 -45 -9 0 -15 -10
-15 -26 0 -14 -7 -32 -15 -40 -10 -10 -15 -35 -15 -69 0 -44 -3 -53 -20 -58
-16 -4 -20 -14 -20 -50 0 -31 -5 -47 -15 -51 -10 -3 -15 -19 -15 -45 0 -22 -5
-41 -12 -43 -6 -2 -13 -31 -16 -64 -3 -32 -10 -62 -15 -66 -6 -4 -13 -40 -15
-80 -3 -48 -9 -76 -18 -81 -10 -6 -14 -32 -14 -97 0 -69 -3 -90 -14 -90 -16 0
-26 -62 -26 -161 0 -45 -4 -69 -12 -71 -19 -7 -19 -861 0 -879 7 -8 12 -39 12
-73 0 -98 11 -166 26 -166 11 0 14 -20 14 -84 0 -59 4 -89 14 -98 8 -9 15 -43
18 -87 2 -40 9 -75 14 -79 6 -4 14 -34 17 -67 3 -33 11 -61 17 -63 5 -2 10
-19 10 -37 0 -19 6 -40 14 -47 7 -8 15 -38 18 -67 3 -34 12 -59 22 -66 9 -7
16 -26 16 -48 0 -20 7 -42 15 -51 8 -8 15 -28 15 -45 0 -16 7 -36 15 -45 8 -8
15 -26 15 -40 0 -14 6 -29 13 -33 8 -4 17 -26 20 -47 4 -22 10 -42 15 -45 5
-3 13 -21 17 -39 3 -18 13 -32 21 -32 9 0 14 -11 14 -30 0 -20 5 -30 15 -30
10 0 15 -10 15 -30 0 -20 5 -30 15 -30 10 0 15 -11 15 -35 0 -24 5 -35 15 -35
9 0 15 -9 15 -25 0 -33 38 -105 56 -105 9 0 14 -12 14 -34 0 -19 7 -41 15 -50
8 -8 15 -19 15 -25 0 -6 7 -11 15 -11 9 0 15 -9 15 -24 0 -14 6 -31 12 -38 7
-7 22 -31 33 -52 11 -22 28 -41 37 -44 12 -3 18 -14 18 -33 0 -17 6 -32 15
-35 8 -4 15 -12 15 -20 0 -8 7 -14 15 -14 9 0 15 -9 15 -25 0 -14 7 -28 15
-31 8 -4 15 -12 15 -20 0 -7 6 -17 13 -21 7 -4 18 -20 24 -35 7 -16 17 -28 23
-28 5 0 10 -7 10 -15 0 -8 7 -15 15 -15 8 0 15 -7 15 -15 0 -8 7 -15 15 -15 9
0 15 -9 15 -22 0 -25 68 -108 88 -108 6 0 12 -7 12 -15 0 -8 7 -15 15 -15 9 0
15 -9 15 -22 1 -25 98 -138 118 -138 7 0 12 -7 12 -15 0 -9 7 -18 15 -21 8 -4
15 -12 15 -20 0 -8 7 -14 15 -14 8 0 15 -7 15 -15 0 -8 7 -15 15 -15 8 0 15
-7 15 -15 0 -8 7 -15 15 -15 8 0 15 -7 15 -15 0 -8 9 -15 20 -15 13 0 20 -7
20 -20 0 -11 7 -20 15 -20 8 0 15 -7 15 -15 0 -8 7 -15 15 -15 8 0 15 -7 15
-15 0 -8 6 -15 13 -15 6 -1 23 -14 37 -30 13 -17 30 -30 37 -30 7 0 13 -5 13
-11 0 -17 82 -88 103 -89 9 0 17 -7 17 -15 0 -8 9 -15 20 -15 11 0 20 -7 20
-15 0 -8 7 -15 15 -15 8 0 15 -6 15 -12 0 -14 59 -58 78 -58 7 0 12 -7 12 -15
0 -8 9 -15 20 -15 11 0 20 -7 20 -15 0 -8 5 -15 11 -15 6 0 17 -7 25 -15 9 -8
24 -15 35 -15 10 0 19 -6 19 -14 0 -16 59 -56 84 -56 9 0 16 -7 16 -15 0 -8 5
-15 11 -15 6 0 17 -7 25 -15 9 -8 24 -15 35 -15 10 0 19 -7 19 -15 0 -8 9 -15
20 -15 11 0 20 -5 20 -10 0 -6 12 -16 27 -23 16 -6 34 -17 41 -24 7 -7 22 -13
32 -13 10 0 20 -7 24 -15 3 -8 12 -15 19 -15 8 0 20 -7 27 -15 7 -8 21 -15 31
-15 11 0 19 -4 19 -10 0 -5 12 -13 28 -16 15 -4 29 -10 32 -14 8 -11 171 -90
186 -90 8 0 14 -4 14 -10 0 -5 12 -13 28 -16 15 -4 36 -13 47 -20 11 -8 34
-14 52 -14 20 0 33 -5 33 -12 0 -14 105 -58 139 -58 11 0 21 -4 21 -9 0 -12
120 -51 157 -51 18 0 33 -6 37 -15 3 -10 19 -15 45 -15 22 0 41 -5 43 -11 4
-11 76 -34 163 -51 28 -6 59 -15 70 -20 12 -5 45 -13 75 -18 30 -5 73 -13 95
-19 22 -6 63 -11 92 -11 29 0 53 -5 55 -11 3 -8 43 -14 108 -17 58 -2 107 -8
110 -12 11 -17 255 -33 500 -33 243 -1 534 16 555 33 6 4 50 10 100 13 51 3
91 10 93 16 2 6 27 11 55 11 29 0 70 5 92 11 22 6 65 15 95 20 30 5 64 13 75
18 11 5 43 13 70 19 94 19 180 43 189 52 6 6 19 10 29 10 10 0 33 6 50 13 18
8 59 22 92 32 53 16 232 85 275 105 49 23 88 39 108 45 12 3 22 11 22 16 0 5
6 9 14 9 21 0 176 80 176 91 0 5 11 9 24 9 14 0 31 7 40 15 8 8 21 15 30 15 8
0 21 6 28 12 8 7 40 27 72 43 32 17 69 40 83 52 13 13 29 23 34 23 11 0 69 38
79 51 3 3 15 9 26 13 12 4 33 17 46 29 13 12 37 29 52 37 15 8 39 25 52 37 14
13 29 23 35 23 5 0 9 7 9 15 0 8 9 15 20 15 32 0 62 57 57 108 -7 67 -27 82
-111 82 -65 0 -74 -3 -104 -30 -18 -17 -37 -30 -43 -30 -5 0 -9 -6 -9 -14 0
-7 -14 -16 -30 -20 -18 -3 -30 -12 -30 -21 0 -8 -9 -15 -20 -15 -11 0 -20 -7
-20 -15 0 -9 -9 -15 -25 -15 -14 0 -28 -7 -31 -15 -4 -8 -12 -15 -20 -15 -8 0
-14 -7 -14 -15 0 -9 -9 -15 -24 -15 -14 0 -31 -6 -38 -13 -7 -7 -25 -18 -40
-24 -16 -7 -28 -17 -28 -23 0 -5 -7 -10 -15 -10 -8 0 -15 -7 -15 -15 0 -10
-10 -15 -30 -15 -18 0 -33 -6 -36 -15 -4 -8 -17 -15 -30 -15 -14 0 -27 -7 -30
-15 -4 -8 -14 -15 -24 -15 -10 0 -25 -7 -34 -15 -8 -8 -22 -15 -30 -15 -9 0
-25 -9 -36 -20 -11 -11 -29 -20 -40 -20 -11 0 -23 -7 -26 -15 -4 -9 -19 -15
-35 -15 -17 0 -32 -6 -35 -15 -4 -9 -19 -15 -35 -15 -19 0 -29 -5 -29 -15 0
-10 -10 -15 -33 -15 -18 0 -41 -6 -52 -14 -11 -7 -32 -16 -47 -20 -16 -3 -28
-13 -28 -21 0 -11 -12 -15 -45 -15 -31 0 -47 -5 -51 -15 -4 -10 -20 -15 -45
-15 -26 0 -42 -5 -45 -15 -4 -10 -20 -15 -44 -15 -21 0 -45 -6 -52 -13 -7 -8
-38 -17 -67 -20 -30 -4 -59 -11 -65 -17 -5 -5 -22 -10 -37 -10 -38 0 -59 -10
-59 -26 0 -11 -17 -14 -75 -14 -52 0 -76 -4 -82 -14 -5 -9 -36 -15 -96 -18
-49 -2 -92 -9 -95 -15 -4 -6 -49 -12 -100 -14 -62 -3 -95 -8 -101 -17 -6 -10
-103 -13 -480 -13 -412 0 -473 2 -487 16 -12 11 -38 15 -114 15 -78 0 -99 3
-104 15 -4 11 -23 15 -80 15 -56 0 -75 4 -80 15 -4 11 -21 15 -62 15 -39 0
-60 5 -68 15 -6 9 -35 18 -66 22 -30 3 -58 10 -61 16 -4 5 -31 12 -60 15 -29
3 -59 11 -67 18 -7 8 -31 14 -52 14 -24 0 -40 5 -44 15 -4 10 -20 15 -51 15
-33 0 -45 4 -45 15 0 11 -12 15 -44 15 -35 0 -45 4 -49 20 -4 15 -14 20 -36
20 -17 0 -31 4 -31 10 0 5 -12 13 -27 16 -16 4 -37 13 -48 20 -11 8 -34 14
-52 14 -23 0 -33 5 -33 15 0 10 -10 15 -30 15 -20 0 -30 5 -30 15 0 9 -9 15
-25 15 -14 0 -34 9 -45 20 -11 11 -27 20 -36 20 -8 0 -22 7 -30 15 -9 8 -24
15 -34 15 -10 0 -20 7 -24 15 -3 9 -18 15 -36 15 -20 0 -30 5 -30 15 0 8 -7
15 -15 15 -8 0 -15 4 -15 10 0 5 -12 13 -26 16 -15 4 -35 15 -45 25 -11 11
-28 19 -38 19 -10 0 -21 6 -24 13 -2 7 -22 21 -43 32 -22 11 -43 26 -47 33 -4
6 -21 12 -37 12 -20 0 -30 5 -30 15 0 8 -6 15 -14 15 -7 0 -16 8 -18 18 -3 9
-22 26 -44 37 -21 11 -43 26 -47 32 -4 7 -12 13 -17 13 -5 0 -24 14 -42 30
-18 17 -40 30 -50 30 -10 0 -18 6 -18 14 0 7 -10 20 -22 29 -13 8 -41 31 -63
51 -22 20 -48 36 -57 36 -10 0 -18 7 -18 15 0 8 -7 15 -15 15 -8 0 -15 7 -15
16 0 9 -9 18 -20 21 -11 3 -20 12 -20 19 0 8 -4 14 -9 14 -12 0 -281 269 -281
281 0 5 -7 9 -15 9 -8 0 -15 7 -15 15 0 8 -7 15 -15 15 -8 0 -15 7 -15 15 0 8
-7 15 -15 15 -8 0 -15 8 -15 18 0 10 -23 42 -50 72 -27 30 -50 58 -50 62 0 4
-7 8 -15 8 -8 0 -15 7 -15 15 0 17 -70 115 -82 115 -4 0 -8 6 -8 13 0 7 -9 23
-20 35 -11 12 -20 26 -20 32 0 5 -6 10 -14 10 -7 0 -16 13 -19 28 -3 15 -16
39 -29 53 -13 14 -34 47 -48 72 -13 26 -30 47 -37 47 -7 0 -13 11 -13 25 0 14
-7 28 -15 31 -8 4 -15 14 -15 24 0 10 -6 25 -13 32 -6 7 -22 34 -34 61 -13 26
-27 47 -32 47 -5 0 -11 14 -14 30 -4 18 -13 30 -22 30 -10 0 -15 10 -15 30 0
18 -6 33 -15 36 -8 4 -15 17 -15 30 0 13 -9 40 -19 61 -26 51 -65 140 -81 183
-7 19 -16 40 -20 45 -4 6 -10 22 -14 37 -3 16 -11 28 -16 28 -6 0 -10 12 -10
28 0 15 -7 40 -15 56 -8 15 -15 35 -15 43 0 8 -6 29 -13 46 -20 48 -44 125
-58 190 -7 31 -16 57 -21 57 -4 0 -8 15 -8 34 0 19 -6 41 -13 48 -8 8 -16 45
-19 87 -3 40 -10 76 -15 80 -6 3 -13 42 -17 85 -3 44 -10 94 -15 110 -15 47
-31 220 -42 441 -12 273 11 752 42 852 6 18 13 65 16 105 3 40 10 76 15 79 5
3 12 39 15 80 4 40 12 80 20 87 7 7 13 28 13 46 0 17 4 36 9 42 4 5 14 32 21
59 7 28 18 68 25 90 7 22 20 65 30 95 9 30 23 69 31 87 8 17 14 43 14 57 0 14
4 26 9 26 5 0 13 10 16 23 4 12 15 41 26 64 10 24 19 49 19 56 0 7 4 17 9 23
14 15 81 176 81 196 0 10 4 18 9 18 9 0 46 64 99 170 15 30 33 61 40 68 6 7
12 22 12 33 0 10 4 19 9 19 8 0 91 131 91 144 0 3 12 17 26 33 14 15 28 40 31
55 3 15 12 28 19 28 8 0 14 4 14 9 0 6 10 21 23 35 12 13 29 37 37 52 8 15 29
44 47 63 17 19 38 46 45 60 7 14 24 37 38 51 46 47 170 188 170 194 0 3 27 32
60 64 33 33 60 64 60 70 0 7 5 12 12 12 6 0 37 27 70 60 32 33 61 60 64 60 5
0 117 98 189 165 17 17 43 36 56 43 14 7 41 28 60 45 19 18 48 39 63 47 15 8
39 25 52 37 14 13 29 23 35 23 5 0 9 6 9 14 0 7 13 16 28 19 15 3 39 16 53 29
14 13 51 37 83 53 32 17 69 40 82 53 14 12 31 22 39 22 7 0 20 6 27 13 7 6 52
31 98 55 47 24 92 47 100 52 15 9 104 50 192 89 26 12 52 21 57 21 6 0 11 5
11 10 0 6 8 10 18 10 10 0 34 9 55 19 20 10 48 22 62 25 14 4 25 11 25 16 0 6
15 10 33 10 18 0 42 7 53 15 10 8 31 15 45 15 14 0 34 7 45 15 10 8 30 15 42
15 13 0 38 6 55 14 18 7 58 19 90 26 31 6 57 15 57 19 0 5 25 11 56 13 31 3
59 9 62 15 4 5 38 13 76 16 37 4 73 10 80 15 6 5 44 12 84 16 40 3 91 11 115
16 147 34 882 56 992 30 22 -5 87 -12 145 -16 58 -4 110 -11 117 -16 6 -5 51
-12 100 -15 48 -3 91 -11 95 -17 4 -5 40 -12 80 -14 48 -3 76 -9 81 -18 5 -8
24 -14 47 -14 22 0 40 -4 40 -8 0 -5 26 -15 58 -22 31 -7 71 -19 89 -26 17 -8
40 -14 51 -14 11 0 33 -7 48 -15 16 -8 36 -15 45 -15 9 0 30 -7 45 -15 16 -8
39 -15 52 -15 13 0 30 -7 38 -15 9 -8 24 -15 34 -15 10 0 21 -4 25 -9 3 -5 22
-15 43 -21 38 -13 119 -48 185 -81 21 -10 48 -19 61 -19 13 0 26 -7 30 -15 3
-9 18 -15 36 -15 20 0 30 -5 30 -15 0 -9 32 -30 77 -53 43 -20 84 -43 91 -49
7 -7 22 -13 32 -13 10 0 20 -7 24 -15 3 -8 17 -15 31 -15 14 0 25 -6 25 -13 0
-7 21 -24 47 -37 25 -14 58 -35 72 -48 14 -13 38 -26 53 -29 15 -3 28 -12 28
-19 0 -8 7 -14 15 -14 8 0 15 -5 15 -10 0 -6 12 -16 28 -23 15 -6 32 -17 37
-23 25 -26 94 -74 109 -74 9 0 16 -7 16 -15 0 -8 7 -15 15 -15 8 0 15 -6 16
-12 1 -17 124 -118 144 -118 8 0 15 -7 15 -15 0 -8 7 -15 15 -15 8 0 15 -7 15
-15 0 -9 7 -18 16 -22 19 -7 274 -262 274 -274 0 -5 7 -9 15 -9 8 0 15 -7 15
-16 0 -9 9 -18 20 -21 11 -3 20 -13 20 -22 0 -9 22 -39 48 -68 26 -28 56 -63
66 -77 10 -14 25 -26 32 -26 8 0 14 -8 14 -18 0 -10 14 -32 30 -50 17 -18 30
-37 30 -42 0 -5 6 -13 13 -17 6 -4 21 -26 32 -47 11 -22 28 -41 37 -44 10 -2
18 -11 18 -18 0 -8 7 -14 15 -14 10 0 15 -10 15 -30 0 -18 6 -33 15 -36 8 -4
15 -14 15 -23 0 -9 14 -31 30 -49 16 -18 30 -40 30 -48 0 -8 8 -22 19 -33 10
-10 21 -30 25 -45 3 -14 11 -26 16 -26 6 0 10 -7 10 -15 0 -8 7 -15 15 -15 10
0 15 -10 15 -30 0 -18 6 -33 15 -36 8 -4 15 -17 15 -30 0 -14 7 -27 15 -30 8
-4 15 -15 15 -25 0 -10 9 -28 20 -39 11 -11 20 -31 20 -45 0 -16 6 -25 15 -25
10 0 15 -10 15 -30 0 -20 5 -30 15 -30 10 0 15 -10 15 -33 0 -18 6 -41 14 -52
7 -11 16 -32 20 -47 3 -16 11 -28 16 -28 6 0 10 -14 10 -31 0 -22 5 -32 20
-36 16 -4 20 -14 20 -49 0 -32 4 -44 15 -44 11 0 15 -12 15 -45 0 -31 5 -47
15 -51 10 -4 15 -20 15 -50 0 -26 5 -46 14 -51 7 -4 15 -32 18 -62 3 -29 10
-56 15 -60 6 -3 13 -31 16 -61 4 -30 13 -60 21 -65 8 -7 15 -37 18 -83 2 -40
9 -76 15 -80 6 -4 12 -40 15 -80 2 -40 9 -76 14 -80 6 -4 14 -62 17 -132 4
-72 11 -126 17 -128 14 -5 14 -859 0 -864 -5 -1 -13 -38 -16 -81 -6 -67 -5
-77 10 -77 9 0 16 -8 16 -19 0 -54 107 -70 159 -24 27 24 31 34 31 79 0 29 4
54 9 56 39 14 40 1002 1 1028 -4 3 -10 52 -13 109 -3 57 -9 107 -15 110 -5 3
-12 40 -15 81 -3 41 -11 76 -17 78 -5 2 -10 23 -10 47 0 23 -6 65 -14 91 -8
27 -26 94 -40 149 -14 55 -30 101 -36 103 -5 2 -10 21 -10 43 0 26 -5 42 -15
45 -10 4 -15 20 -15 44 0 21 -6 45 -13 52 -8 7 -17 31 -20 53 -4 22 -11 41
-17 43 -5 2 -10 11 -10 20 0 32 -45 142 -57 142 -8 0 -13 13 -13 33 0 18 -6
41 -14 52 -7 11 -16 32 -20 48 -3 15 -11 27 -16 27 -6 0 -10 6 -10 14 0 18
-81 180 -92 184 -4 2 -8 12 -8 22 0 10 -6 25 -12 32 -7 7 -23 34 -36 61 -13
26 -28 47 -33 47 -5 0 -9 9 -9 19 0 11 -6 26 -13 33 -7 7 -18 25 -24 41 -7 15
-17 27 -23 27 -5 0 -10 9 -10 20 0 11 -7 20 -15 20 -8 0 -15 9 -15 19 0 11 -7
26 -15 35 -8 8 -15 19 -15 25 0 6 -7 11 -15 11 -8 0 -15 7 -15 16 0 25 -40 84
-56 84 -8 0 -14 9 -14 20 0 10 -13 33 -30 50 -16 17 -30 35 -30 41 0 5 -7 12
-15 15 -8 4 -15 11 -15 17 0 18 -44 77 -57 77 -7 0 -13 7 -13 15 0 8 -7 15
-15 15 -8 0 -15 9 -15 20 0 11 -7 20 -15 20 -8 0 -15 8 -15 18 -1 18 -74 102
-90 102 -6 0 -10 5 -10 12 0 6 -20 31 -45 55 -25 23 -45 47 -45 53 0 5 -7 10
-15 10 -8 0 -15 7 -15 15 0 8 -9 15 -20 15 -13 0 -20 7 -20 20 0 11 -7 20 -15
20 -8 0 -15 7 -15 15 0 8 -7 15 -15 15 -8 0 -15 7 -15 15 0 8 -6 15 -12 15 -7
1 -24 14 -38 30 -13 17 -30 30 -37 30 -7 0 -13 5 -13 12 0 20 -113 117 -137
118 -14 0 -23 6 -23 15 0 8 -7 15 -15 15 -8 0 -15 5 -15 12 0 19 -72 78 -102
85 -16 3 -28 12 -28 19 0 8 -7 14 -15 14 -8 0 -15 7 -15 15 0 8 -5 15 -10 15
-6 0 -20 9 -32 20 -12 11 -27 20 -34 20 -6 0 -14 7 -18 15 -3 8 -10 15 -16 15
-6 0 -18 7 -26 15 -9 8 -24 15 -35 15 -10 0 -19 7 -19 15 0 8 -5 15 -11 15 -6
0 -17 7 -25 15 -9 8 -26 15 -39 15 -13 0 -25 7 -27 18 -3 9 -22 26 -44 37 -21
11 -45 26 -52 33 -7 6 -24 12 -38 12 -15 0 -24 6 -24 15 0 10 -10 15 -30 15
-20 0 -30 5 -30 15 0 8 -6 15 -14 15 -8 0 -16 4 -18 8 -3 10 -225 122 -240
122 -5 0 -16 7 -24 15 -9 8 -31 15 -50 15 -22 0 -34 5 -34 14 0 15 -21 26 -50
26 -10 0 -20 5 -22 10 -2 6 -21 13 -43 17 -22 3 -44 12 -48 20 -4 7 -19 13
-33 13 -14 0 -32 7 -40 15 -9 8 -29 15 -45 15 -17 0 -37 7 -45 15 -9 8 -31 15
-51 15 -21 0 -41 7 -47 15 -6 9 -29 18 -51 22 -22 3 -43 10 -46 15 -3 5 -30
11 -60 15 -30 3 -57 11 -61 16 -3 6 -32 12 -64 15 -32 3 -64 11 -72 18 -9 9
-37 14 -82 14 -51 0 -69 4 -74 15 -4 12 -25 15 -96 15 -69 0 -90 3 -90 14 0
16 -62 26 -161 26 -44 0 -69 4 -71 12 -4 10 -93 13 -384 14 -208 1 -400 0
-426 -3z"/>
<path d="M5030 8135 c0 -13 -26 -15 -175 -15 -144 0 -175 -3 -175 -14 0 -11
-22 -15 -97 -18 -66 -2 -98 -7 -101 -15 -2 -8 -22 -13 -52 -13 -30 0 -54 -6
-64 -15 -8 -8 -31 -15 -51 -15 -20 0 -51 -6 -68 -14 -18 -8 -49 -17 -70 -21
-21 -3 -41 -13 -44 -21 -3 -8 -19 -14 -38 -14 -19 0 -40 -7 -49 -15 -8 -8 -26
-15 -41 -15 -14 0 -28 -7 -31 -15 -4 -9 -19 -15 -35 -15 -19 0 -29 -5 -29 -15
0 -10 -10 -15 -29 -15 -32 0 -131 -46 -131 -61 0 -5 -11 -9 -24 -9 -14 0 -31
-7 -40 -15 -8 -8 -19 -15 -25 -15 -6 0 -11 -7 -11 -15 0 -9 -9 -15 -25 -15
-14 0 -28 -7 -31 -15 -4 -8 -13 -15 -21 -15 -24 0 -83 -40 -83 -56 0 -8 -10
-14 -25 -14 -14 0 -28 -7 -31 -15 -4 -8 -12 -15 -20 -15 -8 0 -14 -7 -14 -15
0 -9 -9 -15 -23 -15 -12 0 -37 -13 -55 -30 -18 -16 -37 -30 -43 -30 -5 0 -9
-9 -9 -20 0 -11 -7 -20 -15 -20 -8 0 -15 -7 -15 -15 0 -10 -10 -15 -28 -15
-19 0 -36 -10 -52 -30 -14 -16 -31 -29 -37 -30 -7 0 -13 -7 -13 -15 0 -8 -7
-15 -15 -15 -8 0 -15 -9 -15 -20 0 -13 -7 -20 -20 -20 -11 0 -20 -7 -20 -15 0
-8 -7 -15 -15 -15 -8 0 -15 -7 -15 -15 0 -8 -7 -15 -15 -15 -8 0 -15 -7 -15
-15 0 -8 -7 -15 -15 -15 -8 0 -15 -7 -15 -15 0 -8 -7 -15 -15 -15 -8 0 -15 -9
-15 -20 0 -13 -7 -20 -20 -20 -11 0 -20 -7 -20 -15 0 -8 -7 -15 -15 -15 -8 0
-15 -6 -15 -12 -1 -7 -14 -24 -30 -38 -20 -16 -30 -33 -30 -52 0 -18 -5 -28
-15 -28 -8 0 -15 -7 -15 -15 0 -8 -9 -15 -20 -15 -11 0 -20 -4 -20 -9 0 -6
-13 -25 -30 -43 -17 -18 -30 -43 -30 -55 0 -14 -6 -23 -15 -23 -8 0 -15 -6
-15 -14 0 -8 -7 -16 -15 -20 -8 -3 -15 -17 -15 -31 0 -15 -6 -25 -14 -25 -16
0 -56 -59 -56 -83 0 -8 -7 -17 -15 -21 -8 -3 -15 -17 -15 -31 0 -16 -6 -25
-15 -25 -10 0 -15 -11 -15 -35 0 -24 -5 -35 -15 -35 -10 0 -15 -10 -15 -30 0
-22 -5 -30 -17 -30 -22 -1 -53 -60 -53 -100 0 -20 -5 -30 -15 -30 -10 0 -15
-10 -15 -29 0 -16 -6 -31 -15 -35 -10 -4 -15 -20 -15 -51 0 -33 -4 -45 -15
-45 -10 0 -15 -10 -15 -29 0 -16 -6 -31 -14 -34 -8 -3 -18 -23 -21 -44 -4 -21
-13 -52 -21 -70 -8 -17 -14 -48 -14 -68 0 -20 -7 -43 -15 -51 -9 -10 -15 -34
-15 -64 0 -30 -5 -50 -12 -52 -9 -3 -14 -35 -16 -101 -3 -75 -7 -97 -18 -97
-11 0 -14 -31 -14 -175 0 -149 -2 -175 -15 -175 -22 0 -22 -205 -1 -217 12 -6
15 -43 18 -177 2 -124 6 -170 16 -174 8 -2 12 -26 12 -72 0 -48 5 -73 15 -84
9 -9 15 -33 15 -65 0 -31 6 -55 15 -65 8 -8 15 -31 15 -51 0 -20 6 -51 14 -68
8 -18 17 -49 21 -70 3 -21 13 -41 21 -44 8 -3 14 -19 14 -38 0 -19 7 -40 15
-49 8 -8 15 -26 15 -41 0 -14 7 -28 15 -31 9 -4 15 -19 15 -35 0 -19 5 -29 15
-29 10 0 15 -10 15 -29 0 -32 46 -131 61 -131 5 0 9 -11 9 -25 0 -14 7 -28 15
-31 8 -4 15 -15 15 -25 0 -10 7 -19 15 -19 9 0 15 -9 15 -25 0 -14 7 -28 15
-31 8 -4 15 -14 15 -24 0 -10 6 -25 13 -32 7 -7 16 -21 20 -30 3 -10 13 -18
22 -18 9 0 15 -9 15 -25 0 -14 7 -28 15 -31 8 -4 15 -12 15 -20 0 -8 7 -14 15
-14 9 0 15 -9 15 -23 0 -12 14 -37 30 -55 17 -18 30 -37 30 -41 0 -5 16 -25
35 -45 19 -21 35 -41 35 -45 0 -4 13 -18 30 -31 16 -14 29 -31 30 -37 0 -7 7
-13 15 -13 8 0 15 -7 15 -15 0 -8 9 -15 20 -15 11 0 20 -7 20 -15 0 -8 7 -15
15 -15 8 0 15 -9 15 -20 0 -11 7 -20 15 -20 8 0 15 -7 15 -15 0 -8 7 -15 15
-15 8 0 15 -7 15 -15 0 -8 7 -15 15 -15 8 0 15 -7 15 -15 0 -8 9 -15 20 -15
11 0 20 -7 20 -15 0 -8 7 -15 15 -15 8 0 15 -9 15 -20 0 -11 4 -20 10 -20 5 0
24 -15 43 -32 56 -56 100 -88 119 -88 10 0 18 -6 18 -13 0 -14 90 -87 108 -87
6 0 26 -14 44 -30 18 -17 38 -30 45 -30 7 0 22 -9 33 -20 11 -11 29 -20 39
-20 10 0 21 -6 24 -13 2 -7 22 -21 43 -32 21 -11 45 -26 52 -32 7 -7 24 -13
37 -13 12 0 25 -7 29 -15 3 -8 17 -15 31 -15 14 0 25 -5 25 -10 0 -6 12 -16
28 -22 15 -6 55 -24 90 -40 34 -15 71 -28 83 -28 11 0 27 -7 35 -15 9 -8 30
-15 49 -15 20 0 35 -6 39 -15 4 -10 20 -15 50 -15 28 0 46 -5 49 -14 5 -14 44
-26 152 -48 28 -5 58 -14 68 -19 10 -6 48 -13 85 -16 37 -3 73 -10 80 -16 7
-6 72 -12 145 -15 81 -3 135 -9 139 -16 11 -16 470 -14 476 2 2 8 31 12 88 12
47 0 117 6 157 14 40 8 92 18 117 21 25 4 50 11 55 15 6 4 31 10 57 13 26 4
56 11 65 16 10 5 44 15 76 22 31 7 57 16 57 21 0 4 12 8 26 8 14 0 40 6 57 14
18 7 55 22 82 31 48 17 122 49 233 100 28 14 52 29 52 35 0 5 11 10 25 10 14
0 28 7 31 15 4 8 13 15 21 15 38 0 386 229 450 297 12 13 25 23 29 23 11 0 51
38 209 195 157 158 195 198 195 209 0 4 10 17 23 29 24 23 108 134 165 220 18
26 32 57 32 68 0 10 6 19 13 19 14 0 87 120 87 143 0 8 7 17 15 21 8 3 15 16
15 30 0 13 7 26 15 30 8 3 15 17 15 31 0 14 5 25 10 25 6 0 16 12 22 28 6 15
24 55 40 90 15 34 28 73 28 87 0 14 4 25 10 25 5 0 13 12 16 27 4 15 13 38 20
52 8 14 14 38 14 54 0 15 4 27 8 27 5 0 14 26 21 58 7 31 17 65 22 75 5 9 12
39 16 65 3 26 10 52 15 58 5 7 11 43 15 80 3 38 10 75 16 82 5 7 12 65 15 130
3 68 9 120 16 124 15 10 15 496 0 506 -7 4 -13 56 -16 124 -3 65 -10 123 -15
130 -6 7 -13 43 -16 80 -3 37 -10 75 -16 85 -5 10 -13 41 -19 68 -19 94 -45
185 -54 185 -4 0 -8 14 -8 30 0 18 -6 33 -15 36 -9 4 -15 19 -15 39 0 19 -7
40 -15 49 -8 8 -15 24 -15 35 0 12 -13 49 -28 83 -16 35 -34 75 -40 91 -6 15
-16 27 -22 27 -5 0 -10 11 -10 25 0 14 -7 28 -15 31 -8 4 -15 17 -15 29 0 13
-6 30 -12 37 -7 7 -22 31 -33 52 -11 21 -25 41 -32 43 -7 3 -13 14 -13 24 0
10 -9 28 -20 39 -11 11 -20 26 -20 33 0 7 -13 27 -30 45 -16 18 -30 38 -30 44
0 18 -73 108 -87 108 -7 0 -13 8 -13 18 0 19 -32 63 -87 119 -18 19 -33 38
-33 43 0 6 -9 10 -20 10 -11 0 -20 7 -20 15 0 8 -7 15 -15 15 -8 0 -15 9 -15
20 0 11 -7 20 -15 20 -8 0 -15 7 -15 15 0 8 -7 15 -15 15 -8 0 -15 7 -15 15 0
8 -7 15 -15 15 -8 0 -15 7 -15 15 0 8 -9 15 -20 15 -11 0 -20 7 -20 15 0 8 -7
15 -15 15 -8 0 -15 9 -15 20 0 11 -7 20 -15 20 -8 0 -15 7 -15 15 0 8 -6 15
-12 15 -7 1 -24 14 -38 30 -13 17 -27 30 -31 30 -4 0 -24 16 -45 35 -20 19
-40 35 -45 35 -4 0 -23 14 -41 30 -18 17 -43 30 -55 30 -14 0 -23 6 -23 15 0
8 -6 15 -14 15 -8 0 -16 7 -20 15 -3 8 -17 15 -31 15 -16 0 -25 6 -25 15 0 9
-8 19 -17 22 -10 4 -24 13 -31 20 -7 7 -20 13 -27 13 -8 0 -26 12 -42 26 -15
14 -40 28 -55 31 -15 3 -29 11 -32 19 -3 8 -17 14 -31 14 -14 0 -25 4 -25 10
0 5 -26 21 -57 36 -32 14 -70 33 -85 40 -14 8 -37 14 -51 14 -14 0 -27 7 -31
15 -3 8 -17 15 -31 15 -15 0 -33 7 -41 15 -9 8 -30 15 -49 15 -19 0 -35 6 -38
14 -3 8 -23 18 -44 21 -21 4 -52 13 -70 21 -17 8 -48 14 -68 14 -20 0 -43 7
-51 15 -10 9 -34 15 -65 15 -32 0 -56 6 -65 15 -11 10 -36 15 -84 15 -46 0
-70 4 -72 13 -4 9 -50 13 -174 15 -134 3 -171 6 -177 18 -12 21 -217 21 -217
-1z m60 -785 c0 -5 11 -21 25 -35 14 -14 30 -25 35 -25 19 0 11 -79 -10 -100
-11 -11 -20 -28 -20 -39 0 -14 -10 -20 -42 -24 -24 -3 -44 -11 -46 -16 -2 -7
-47 -11 -122 -11 -87 0 -122 -4 -132 -14 -9 -8 -44 -15 -88 -18 -45 -2 -75 -8
-78 -16 -2 -7 -16 -12 -32 -12 -38 0 -60 -9 -60 -26 0 -10 -14 -14 -50 -14
-38 0 -50 -4 -50 -15 0 -11 -11 -15 -39 -15 -22 0 -46 -7 -55 -15 -8 -8 -24
-15 -36 -15 -11 0 -23 -7 -26 -15 -4 -8 -17 -15 -30 -15 -14 0 -27 -7 -30 -15
-4 -8 -15 -15 -25 -15 -10 0 -28 -9 -39 -20 -11 -11 -24 -20 -30 -20 -5 0 -10
-7 -10 -15 0 -10 -10 -15 -30 -15 -20 0 -30 -5 -30 -15 0 -9 -9 -15 -23 -15
-12 0 -37 -13 -55 -30 -18 -16 -37 -30 -43 -30 -5 0 -9 -9 -9 -20 0 -14 -7
-20 -24 -20 -15 0 -45 -21 -86 -60 -34 -33 -66 -60 -71 -60 -5 0 -9 -9 -9 -20
0 -13 -7 -20 -20 -20 -11 0 -20 -4 -20 -9 0 -5 -27 -37 -60 -71 -39 -41 -60
-71 -60 -86 0 -17 -6 -24 -20 -24 -11 0 -20 -4 -20 -9 0 -6 -13 -25 -30 -43
-16 -18 -30 -43 -30 -55 0 -14 -6 -23 -15 -23 -10 0 -15 -10 -15 -30 0 -20 -5
-30 -15 -30 -8 0 -15 -4 -15 -10 0 -5 -9 -19 -20 -30 -11 -11 -20 -29 -20 -39
0 -10 -7 -21 -15 -25 -8 -3 -15 -16 -15 -30 0 -13 -7 -26 -15 -30 -8 -3 -15
-15 -15 -26 0 -12 -7 -28 -15 -36 -8 -9 -15 -33 -15 -55 0 -28 -4 -39 -15 -39
-11 0 -15 -12 -15 -50 0 -36 -4 -50 -14 -50 -17 0 -26 -22 -26 -60 0 -16 -5
-30 -11 -32 -6 -2 -14 -37 -17 -78 -2 -41 -10 -78 -16 -82 -8 -5 -12 -123 -14
-388 -2 -326 -5 -380 -17 -380 -8 0 -15 -7 -15 -15 0 -12 -15 -15 -78 -15
l-77 0 -22 48 c-11 26 -24 75 -28 110 -4 34 -11 62 -16 62 -12 0 -12 447 0
452 5 2 16 53 25 113 17 120 37 224 47 240 4 6 10 26 14 45 7 39 30 109 51
157 8 17 14 43 14 57 0 14 5 26 10 26 6 0 15 12 20 26 6 15 31 67 55 117 25
49 45 96 45 103 0 8 4 14 9 14 9 0 91 125 91 140 0 4 18 28 40 51 22 24 43 52
46 64 9 26 363 380 389 389 12 3 40 24 64 46 23 22 47 40 51 40 15 0 140 82
140 91 0 5 6 9 14 9 7 0 54 20 103 45 50 24 102 49 117 55 14 5 26 14 26 20 0
5 12 10 26 10 14 0 40 6 57 14 110 48 308 99 460 118 53 7 97 16 97 20 0 4 43
8 95 8 54 0 95 -4 95 -10z m-179 -652 c27 -32 32 -60 24 -123 -4 -38 -11 -55
-21 -55 -8 0 -14 -7 -14 -15 0 -11 -13 -15 -54 -15 -35 0 -60 -5 -70 -15 -8
-8 -32 -15 -55 -15 -30 0 -41 -4 -41 -15 0 -11 -11 -15 -39 -15 -22 0 -46 -7
-55 -15 -8 -8 -24 -15 -36 -15 -13 0 -24 -8 -27 -20 -4 -15 -14 -20 -39 -20
-24 0 -34 -5 -34 -15 0 -9 -9 -15 -25 -15 -14 0 -28 -7 -31 -15 -4 -8 -12 -15
-20 -15 -8 0 -14 -7 -14 -15 0 -9 -9 -15 -23 -15 -26 0 -77 -38 -77 -58 0 -7
-7 -12 -15 -12 -8 0 -15 -7 -15 -15 0 -9 -9 -15 -22 -15 -31 0 -138 -107 -138
-137 0 -14 -6 -23 -15 -23 -8 0 -15 -7 -15 -15 0 -8 -9 -15 -20 -15 -11 0 -20
-5 -20 -11 0 -6 -7 -17 -15 -25 -8 -9 -15 -26 -15 -40 0 -15 -6 -24 -15 -24
-8 0 -15 -6 -15 -14 0 -8 -7 -16 -15 -20 -8 -3 -15 -17 -15 -31 0 -16 -6 -25
-15 -25 -10 0 -15 -10 -15 -34 0 -25 -5 -35 -20 -39 -12 -3 -20 -14 -20 -27 0
-12 -7 -28 -15 -36 -8 -9 -15 -33 -15 -55 0 -28 -4 -39 -15 -39 -11 0 -15 -12
-15 -44 0 -30 -5 -46 -15 -50 -11 -4 -15 -23 -15 -80 0 -56 -4 -75 -15 -80
-11 -4 -15 -23 -15 -81 0 -66 -2 -75 -18 -75 -10 0 -27 -7 -38 -15 -10 -8 -38
-15 -61 -15 -33 0 -50 7 -78 31 l-35 31 0 108 c0 67 4 110 10 112 6 2 14 30
17 63 3 33 9 62 13 65 4 3 19 45 34 94 25 80 108 275 129 301 21 27 87 137 87
145 0 6 3 10 8 10 4 0 27 26 52 58 24 31 50 61 57 65 7 4 13 12 13 17 0 12 98
110 110 110 5 0 13 6 17 13 4 7 34 33 66 57 31 25 57 48 57 52 0 5 4 8 10 8 8
0 118 66 145 87 25 20 219 103 300 129 50 16 92 32 95 36 7 9 86 16 138 12 30
-3 50 -11 63 -26z m343 -1017 c4 -5 25 -12 48 -16 23 -4 48 -14 56 -21 7 -8
20 -14 28 -14 9 0 22 -7 30 -15 9 -8 26 -15 40 -15 13 0 24 -5 24 -12 0 -6 27
-37 60 -70 33 -32 60 -64 60 -71 0 -7 8 -22 18 -33 10 -11 22 -32 26 -47 3
-15 11 -27 16 -27 6 0 10 -11 10 -25 0 -14 7 -28 15 -31 12 -5 15 -33 15 -161
0 -124 -3 -157 -15 -169 -8 -9 -15 -33 -15 -55 0 -28 -4 -39 -15 -39 -10 0
-15 -10 -15 -30 0 -23 -4 -30 -20 -30 -11 0 -20 -6 -20 -14 0 -19 -127 -146
-146 -146 -7 0 -14 -9 -14 -20 0 -16 -7 -20 -30 -20 -20 0 -30 -5 -30 -15 0
-11 -11 -15 -39 -15 -22 0 -46 -7 -55 -15 -12 -12 -45 -15 -169 -15 -128 0
-156 3 -161 15 -3 8 -17 15 -31 15 -14 0 -25 4 -25 10 0 5 -12 13 -27 16 -15
4 -36 16 -47 26 -11 10 -26 18 -33 18 -7 0 -39 27 -71 60 -33 33 -64 60 -70
60 -7 0 -12 11 -12 24 0 14 -7 31 -15 40 -8 8 -15 21 -15 30 0 8 -6 21 -14 28
-7 8 -17 33 -21 56 -4 23 -11 44 -16 48 -5 3 -9 61 -9 129 0 68 4 126 9 129 5
4 12 25 16 48 4 23 14 48 21 56 8 7 14 22 14 32 0 10 3 20 8 22 4 2 21 23 37
47 38 57 79 98 136 136 24 17 46 33 47 38 2 4 12 7 22 7 10 0 25 6 32 14 8 7
33 17 56 21 23 4 44 11 48 16 3 5 61 9 129 9 68 0 126 -4 129 -9z m2016 -670
c0 -5 12 -12 28 -15 20 -5 31 -17 45 -49 19 -46 23 -113 7 -119 -5 -1 -13 -43
-16 -93 -4 -49 -12 -93 -17 -97 -6 -3 -12 -32 -15 -64 -3 -32 -11 -64 -18 -72
-9 -8 -14 -35 -14 -68 0 -41 -4 -54 -15 -54 -11 0 -15 -12 -15 -50 0 -43 -3
-50 -20 -50 -15 0 -20 -7 -20 -29 0 -16 -6 -31 -15 -35 -8 -3 -15 -16 -15 -30
0 -13 -7 -26 -15 -30 -9 -3 -15 -18 -15 -36 0 -20 -5 -30 -15 -30 -10 0 -15
-10 -15 -30 0 -20 -5 -30 -15 -30 -10 0 -15 -11 -15 -35 0 -28 -4 -35 -20 -35
-11 0 -20 -5 -20 -11 0 -6 -7 -17 -15 -25 -8 -9 -15 -24 -15 -35 0 -10 -7 -19
-15 -19 -8 0 -15 -5 -15 -11 0 -6 -7 -17 -15 -25 -8 -9 -15 -26 -15 -40 0 -15
-6 -24 -15 -24 -8 0 -15 -7 -15 -15 0 -8 -6 -15 -13 -15 -18 0 -57 -55 -57
-80 0 -11 -7 -20 -15 -20 -8 0 -15 -7 -15 -15 0 -8 -7 -15 -15 -15 -8 0 -15
-7 -15 -15 0 -8 -7 -15 -15 -15 -8 0 -15 -7 -15 -15 0 -8 -9 -15 -20 -15 -11
0 -20 -7 -20 -15 0 -8 -7 -15 -15 -15 -8 0 -15 -9 -15 -20 0 -11 -7 -20 -15
-20 -8 0 -15 -7 -15 -15 0 -8 -7 -15 -15 -15 -8 0 -15 -7 -15 -15 0 -8 -7 -15
-15 -15 -8 0 -15 -7 -15 -15 0 -8 -9 -15 -20 -15 -25 0 -80 -39 -80 -57 0 -7
-7 -13 -15 -13 -8 0 -15 -7 -15 -15 0 -9 -9 -15 -24 -15 -14 0 -31 -7 -40 -15
-8 -8 -19 -15 -25 -15 -6 0 -11 -7 -11 -15 0 -8 -9 -15 -19 -15 -11 0 -26 -7
-35 -15 -8 -8 -19 -15 -25 -15 -6 0 -11 -9 -11 -20 0 -16 -7 -20 -35 -20 -24
0 -35 -5 -35 -15 0 -10 -10 -15 -30 -15 -20 0 -30 -5 -30 -15 0 -10 -10 -15
-30 -15 -18 0 -33 -6 -36 -15 -4 -8 -15 -15 -26 -15 -11 0 -34 -6 -51 -14 -18
-7 -44 -18 -59 -24 -16 -7 -28 -16 -28 -22 0 -5 -15 -10 -34 -10 -19 0 -41 -7
-50 -15 -8 -8 -30 -15 -50 -15 -19 0 -41 -6 -48 -13 -7 -8 -40 -16 -72 -20
-33 -3 -62 -10 -65 -15 -3 -5 -46 -12 -96 -16 -49 -3 -91 -11 -93 -16 -2 -6
-101 -10 -258 -10 -219 0 -254 2 -254 15 0 8 -6 15 -14 15 -8 0 -19 19 -26 49
-9 39 -9 55 3 82 25 62 32 63 241 70 209 7 364 21 417 37 19 5 60 15 92 22 31
6 57 16 57 21 0 5 15 9 34 9 35 0 148 38 154 52 2 4 12 8 23 8 32 0 291 130
297 150 2 6 10 10 17 10 13 0 144 93 198 141 15 13 45 40 67 59 22 19 40 40
40 47 0 7 7 13 15 13 8 0 15 7 15 15 0 8 7 15 15 15 8 0 15 7 15 15 0 8 6 15
13 15 7 0 27 17 45 38 18 20 48 55 68 77 38 44 134 180 134 190 0 3 7 13 15
21 8 9 15 24 15 35 0 10 4 19 9 19 11 0 25 24 81 138 22 45 40 91 40 101 0 11
4 21 8 23 13 5 52 118 52 150 0 16 6 36 14 44 8 8 18 36 21 62 3 26 10 57 15
69 5 13 12 53 15 90 9 100 24 148 55 178 35 33 110 58 110 36z m-566 -142 c28
-31 28 -33 21 -113 -4 -44 -11 -84 -17 -87 -5 -3 -12 -34 -15 -68 -4 -42 -10
-61 -19 -61 -9 0 -14 -11 -14 -29 0 -16 -6 -31 -15 -35 -9 -3 -15 -18 -15 -35
0 -16 -6 -31 -15 -35 -8 -3 -15 -16 -15 -28 0 -13 -9 -29 -20 -36 -11 -7 -20
-23 -20 -36 0 -13 -7 -26 -15 -30 -8 -3 -15 -17 -15 -31 0 -16 -6 -25 -15 -25
-8 0 -15 -4 -15 -9 0 -6 -13 -25 -30 -43 -16 -18 -30 -43 -30 -55 0 -16 -6
-23 -20 -23 -11 0 -20 -4 -20 -9 0 -10 -68 -87 -124 -139 -21 -21 -54 -52 -73
-69 -18 -18 -38 -33 -43 -33 -6 0 -10 -9 -10 -20 0 -11 -7 -20 -15 -20 -8 0
-15 -7 -15 -15 0 -10 -10 -15 -30 -15 -18 0 -33 -6 -36 -15 -4 -8 -12 -15 -20
-15 -8 0 -14 -7 -14 -15 0 -9 -9 -15 -25 -15 -14 0 -28 -7 -31 -15 -4 -8 -15
-15 -25 -15 -10 0 -28 -9 -39 -20 -11 -11 -29 -20 -40 -20 -11 0 -23 -7 -26
-15 -4 -9 -19 -15 -35 -15 -17 0 -32 -6 -35 -15 -4 -9 -19 -15 -35 -15 -19 0
-29 -5 -29 -15 0 -11 -11 -15 -42 -15 -24 0 -56 -7 -72 -15 -15 -8 -39 -15
-51 -15 -34 0 -55 -10 -55 -26 0 -11 -25 -14 -127 -14 l-128 1 -27 36 c-30 39
-37 97 -17 134 23 44 45 56 115 63 37 4 73 11 79 15 5 5 37 11 69 14 33 3 62
10 65 15 3 5 24 12 45 15 22 4 42 10 45 15 3 5 23 12 43 16 21 4 43 13 50 20
7 7 26 16 41 20 15 3 27 11 27 16 0 6 7 10 15 10 20 0 145 71 145 82 0 4 5 8
11 8 34 0 309 268 309 301 0 11 6 19 13 19 12 1 57 63 57 80 0 5 11 21 25 36
14 15 28 39 32 53 3 14 12 32 20 39 7 7 13 22 13 33 0 10 4 19 8 19 9 0 32 59
32 83 0 9 4 17 10 17 5 0 12 17 15 38 3 20 10 44 14 52 5 9 12 31 15 50 13 64
39 108 71 119 52 18 107 6 139 -30z"/>
<path d="M9354 4106 c-3 -9 -12 -16 -20 -16 -8 0 -14 -7 -14 -15 0 -8 -9 -15
-20 -15 -14 0 -20 -7 -20 -24 0 -13 -7 -37 -15 -52 -8 -16 -15 -48 -15 -70 0
-28 -5 -44 -15 -48 -10 -4 -15 -20 -15 -50 0 -30 -5 -46 -15 -50 -10 -3 -15
-19 -15 -45 0 -25 -5 -41 -15 -45 -10 -4 -15 -20 -15 -51 0 -33 -4 -45 -15
-45 -8 0 -18 -12 -21 -27 -4 -16 -13 -37 -20 -48 -8 -11 -14 -34 -14 -52 0
-23 -5 -33 -15 -33 -10 0 -15 -10 -15 -29 0 -16 -6 -31 -15 -35 -9 -3 -15 -18
-15 -36 0 -20 -5 -30 -15 -30 -9 0 -15 -9 -15 -25 0 -14 -9 -34 -20 -45 -11
-11 -20 -27 -20 -36 0 -8 -7 -22 -15 -30 -8 -9 -15 -24 -15 -34 0 -10 -7 -20
-15 -24 -8 -3 -15 -16 -15 -30 0 -13 -7 -26 -15 -30 -9 -3 -15 -18 -15 -36 0
-20 -5 -30 -15 -30 -11 0 -15 -11 -15 -40 0 -27 5 -43 15 -46 8 -4 15 -12 15
-19 0 -19 45 -45 78 -45 44 0 88 27 106 65 9 19 21 37 26 40 6 3 10 13 10 21
0 9 7 22 15 30 8 9 15 26 15 40 0 13 4 24 9 24 11 0 91 155 91 176 0 8 4 14 9
14 5 0 13 10 16 23 6 20 26 67 47 110 20 41 58 151 58 168 0 11 4 19 8 19 4 0
18 33 31 73 13 39 27 80 32 89 5 10 13 34 18 55 6 21 21 76 35 123 14 47 26
100 26 118 0 36 -25 82 -45 82 -7 0 -15 5 -17 10 -2 6 -20 13 -40 17 -29 4
-39 2 -44 -11z"/>
<path d="M8520 2445 c0 -9 -9 -15 -23 -15 -29 0 -47 -18 -47 -47 0 -14 -6 -23
-15 -23 -8 0 -15 -7 -15 -15 0 -8 -7 -15 -15 -15 -8 0 -15 -7 -15 -15 0 -8 -7
-15 -15 -15 -8 0 -15 -7 -15 -15 0 -8 -5 -15 -12 -15 -7 0 -23 -12 -35 -27
-19 -21 -23 -38 -23 -87 0 -52 4 -65 25 -84 36 -34 97 -40 124 -13 11 11 26
21 31 21 6 0 10 6 10 14 0 8 6 16 14 18 20 5 116 120 116 141 0 9 7 17 15 17
8 0 15 5 15 11 0 6 7 17 15 25 8 9 15 28 15 44 0 16 -7 35 -15 44 -8 8 -15 19
-15 25 0 6 -6 11 -14 11 -8 0 -16 7 -20 15 -3 10 -19 15 -46 15 -29 0 -40 -4
-40 -15z"/>
</g>
</svg>
