<?xml version="1.0" standalone="no"?>
<!DOCTYPE svg PUBLIC "-//W3C//DTD SVG 20010904//EN"
 "http://www.w3.org/TR/2001/REC-SVG-20010904/DTD/svg10.dtd">
<svg version="1.0" xmlns="http://www.w3.org/2000/svg"
 width="1024.000000pt" height="1024.000000pt" viewBox="0 0 1024.000000 1024.000000"
 preserveAspectRatio="xMidYMid meet">

<g transform="translate(0.000000,1024.000000) scale(0.100000,-0.100000)"
fill="#000000" stroke="none">
<path d="M4980 9633 c-1150 -41 -2235 -510 -3040 -1313 -1285 -1282 -1683
-3189 -1015 -4875 113 -286 315 -662 488 -910 718 -1029 1830 -1715 3068
-1894 407 -59 803 -62 1209 -10 698 88 1354 333 1940 722 234 155 260 180 260
253 0 28 -8 44 -34 70 -47 47 -95 47 -162 0 -446 -315 -815 -504 -1271 -650
-1216 -388 -2562 -206 -3632 491 -631 411 -1132 964 -1477 1628 -196 377 -348
832 -419 1247 -44 263 -58 433 -58 718 -1 267 8 397 43 635 174 1196 865 2277
1885 2951 545 360 1151 583 1835 676 145 20 209 23 525 23 386 0 482 -8 775
-61 1832 -337 3240 -1823 3479 -3674 32 -242 42 -679 22 -900 -5 -52 -12 -130
-16 -172 l-8 -77 36 -36 c29 -29 42 -35 79 -35 87 0 110 37 129 205 19 160 19
765 1 930 -61 552 -205 1048 -447 1540 -428 869 -1118 1572 -1981 2017 -493
254 -1000 409 -1546 473 -134 16 -472 36 -548 33 -25 -1 -79 -3 -120 -5z"/>
<path d="M3740 6672 c-19 -9 -45 -32 -57 -51 l-23 -34 0 -1471 c0 -1450 0
-1471 20 -1504 11 -18 34 -41 52 -52 31 -19 51 -20 398 -20 348 0 367 1 398
20 19 12 41 38 52 63 19 41 20 84 20 1491 0 1429 0 1450 -20 1491 -13 26 -34
49 -59 63 -38 21 -47 22 -392 22 -317 0 -358 -2 -389 -18z"/>
<path d="M5727 6668 c-23 -14 -45 -38 -57 -63 -20 -41 -20 -64 -20 -1491 0
-1407 1 -1450 20 -1491 11 -25 33 -51 52 -63 31 -19 50 -20 398 -20 347 0 367
1 398 20 18 11 41 34 52 52 20 33 20 54 20 1504 l0 1471 -23 34 c-45 68 -51
69 -447 69 -346 0 -356 -1 -393 -22z"/>
<path d="M9343 4105 c-44 -19 -59 -45 -97 -181 -80 -276 -169 -501 -313 -782
-64 -126 -93 -194 -93 -217 0 -47 43 -94 92 -102 61 -9 94 11 137 86 100 171
227 451 310 681 61 170 121 377 121 416 0 45 -26 83 -67 100 -40 17 -49 17
-90 -1z"/>
<path d="M8502 2454 c-21 -9 -213 -236 -224 -263 -32 -85 67 -176 153 -141 36
15 204 208 226 260 18 40 6 95 -27 125 -20 18 -102 30 -128 19z"/>
</g>
</svg>
