<?xml version="1.0" standalone="no"?>
<!DOCTYPE svg PUBLIC "-//W3C//DTD SVG 20010904//EN"
 "http://www.w3.org/TR/2001/REC-SVG-20010904/DTD/svg10.dtd">
<svg version="1.0" xmlns="http://www.w3.org/2000/svg"
 width="128.000000pt" height="128.000000pt" viewBox="0 0 128.000000 128.000000"
 preserveAspectRatio="xMidYMid meet">

<g transform="translate(0.000000,128.000000) scale(0.100000,-0.100000)"
fill="#000000" stroke="none">
<path d="M500 1195 c-59 -17 -163 -63 -194 -87 -10 -8 -16 -20 -12 -26 4 -7
22 -1 53 18 80 51 149 72 253 77 56 3 119 0 153 -7 183 -37 346 -192 401 -379
21 -71 21 -220 0 -292 -52 -178 -204 -328 -379 -374 -76 -19 -204 -19 -280 1
-178 46 -333 201 -380 379 -8 33 -15 97 -15 143 0 62 -3 83 -12 80 -20 -7 -22
-138 -3 -211 48 -193 186 -344 373 -409 95 -33 258 -33 354 0 169 58 302 191
360 360 33 96 33 258 0 354 -57 166 -191 301 -355 358 -82 29 -239 36 -317 15z"/>
<path d="M206 1011 c-20 -22 -20 -31 -1 -31 17 0 39 36 26 44 -4 3 -16 -3 -25
-13z"/>
<path d="M121 880 c-12 -27 -24 -63 -27 -80 -11 -53 11 -32 40 38 15 37 29 73
33 80 3 6 -1 12 -10 12 -8 0 -24 -22 -36 -50z"/>
<path d="M416 755 c-76 -51 -143 -98 -148 -103 -11 -11 280 -212 307 -212 12
0 15 17 15 99 l0 99 147 -99 c81 -54 153 -99 160 -99 10 0 13 47 13 205 0 157
-3 205 -12 205 -7 0 -79 -45 -160 -99 l-148 -99 0 99 c0 88 -2 99 -17 98 -10
0 -80 -42 -157 -94z"/>
</g>
</svg>
