<?xml version="1.0" standalone="no"?>
<!DOCTYPE svg PUBLIC "-//W3C//DTD SVG 20010904//EN"
 "http://www.w3.org/TR/2001/REC-SVG-20010904/DTD/svg10.dtd">
<svg version="1.0" xmlns="http://www.w3.org/2000/svg"
 width="128.000000pt" height="128.000000pt" viewBox="0 0 128.000000 128.000000"
 preserveAspectRatio="xMidYMid meet">

<g transform="translate(0.000000,128.000000) scale(0.100000,-0.100000)"
fill="#000000" stroke="none">
<path d="M550 1194 c-107 -21 -231 -85 -305 -159 -54 -55 -110 -146 -137 -223
-33 -96 -33 -258 0 -354 113 -327 474 -478 787 -329 75 36 100 55 91 69 -4 7
-22 1 -53 -18 -80 -51 -149 -72 -253 -77 -56 -3 -119 0 -153 7 -183 37 -346
192 -401 379 -21 71 -21 220 0 292 52 178 204 328 379 374 76 19 204 19 280
-1 178 -46 333 -201 380 -379 8 -33 15 -97 15 -143 0 -62 3 -83 13 -80 19 7
21 138 2 211 -47 191 -185 343 -368 407 -61 22 -218 35 -277 24z"/>
<path d="M370 635 c0 -157 3 -205 13 -205 6 0 78 45 160 99 l147 99 0 -99 c0
-82 3 -99 15 -99 15 0 315 195 315 205 0 10 -300 205 -315 205 -12 0 -15 -17
-15 -99 l0 -99 -147 99 c-81 54 -153 99 -160 99 -10 0 -13 -47 -13 -205z"/>
<path d="M1146 443 c-15 -38 -29 -74 -33 -80 -3 -7 1 -13 10 -13 15 0 53 77
63 130 11 53 -11 32 -40 -37z"/>
<path d="M1051 281 c-6 -10 -7 -21 -4 -25 7 -7 43 23 43 36 0 16 -29 8 -39
-11z"/>
</g>
</svg>
